<svg width="74" height="16" viewBox="0 0 74 16" fill="none" xmlns="http://www.w3.org/2000/svg">
<path d="M7.14 15.324C5.87333 15.324 4.78667 15.1174 3.88 14.704C2.98667 14.2907 2.28667 13.684 1.78 12.884C1.28667 12.084 1.01333 11.0907 0.96 9.90402C0.946667 9.35736 0.94 8.77069 0.94 8.14402C0.94 7.51736 0.946667 6.91736 0.96 6.34402C1.01333 5.18402 1.29333 4.20402 1.8 3.40402C2.30667 2.59069 3.01333 1.97736 3.92 1.56402C4.82667 1.13736 5.9 0.924023 7.14 0.924023C8.02 0.924023 8.83333 1.03736 9.58 1.26402C10.3267 1.47736 10.98 1.79736 11.54 2.22402C12.1 2.63736 12.5333 3.14402 12.84 3.74402C13.16 4.33069 13.3267 4.99736 13.34 5.74402C13.3533 5.86402 13.3133 5.96402 13.22 6.04402C13.14 6.12402 13.04 6.16402 12.92 6.16402H10.22C10.0467 6.16402 9.91333 6.13069 9.82 6.06402C9.72667 5.98402 9.64667 5.84402 9.58 5.64402C9.39333 4.93736 9.08667 4.45736 8.66 4.20402C8.24667 3.93736 7.73333 3.80402 7.12 3.80402C6.38667 3.80402 5.80667 4.01069 5.38 4.42402C4.95333 4.82402 4.72 5.49736 4.68 6.44402C4.64 7.53736 4.64 8.65736 4.68 9.80402C4.72 10.7507 4.95333 11.4307 5.38 11.844C5.80667 12.244 6.38667 12.444 7.12 12.444C7.73333 12.444 8.25333 12.3107 8.68 12.044C9.10667 11.7774 9.40667 11.2974 9.58 10.604C9.63333 10.404 9.70667 10.2707 9.8 10.204C9.90667 10.124 10.0467 10.084 10.22 10.084H12.92C13.04 10.084 13.14 10.124 13.22 10.204C13.3133 10.284 13.3533 10.384 13.34 10.504C13.3267 11.2507 13.16 11.924 12.84 12.524C12.5333 13.1107 12.1 13.6174 11.54 14.044C10.98 14.4574 10.3267 14.7774 9.58 15.004C8.83333 15.2174 8.02 15.324 7.14 15.324ZM20.143 15.324C19.023 15.324 18.0763 15.144 17.303 14.784C16.543 14.424 15.9563 13.9107 15.543 13.244C15.143 12.564 14.9163 11.7574 14.863 10.824C14.8496 10.5574 14.843 10.2574 14.843 9.92402C14.843 9.57736 14.8496 9.27736 14.863 9.02402C14.9163 8.07736 15.1563 7.27069 15.583 6.60402C16.0096 5.93736 16.603 5.42402 17.363 5.06402C18.1363 4.70402 19.063 4.52402 20.143 4.52402C21.2363 4.52402 22.163 4.70402 22.923 5.06402C23.6963 5.42402 24.2963 5.93736 24.723 6.60402C25.1496 7.27069 25.3896 8.07736 25.443 9.02402C25.4563 9.27736 25.463 9.57736 25.463 9.92402C25.463 10.2574 25.4563 10.5574 25.443 10.824C25.3896 11.7574 25.1563 12.564 24.743 13.244C24.343 13.9107 23.7563 14.424 22.983 14.784C22.223 15.144 21.2763 15.324 20.143 15.324ZM20.143 12.884C20.743 12.884 21.1763 12.704 21.443 12.344C21.723 11.984 21.883 11.444 21.923 10.724C21.9363 10.524 21.943 10.2574 21.943 9.92402C21.943 9.59069 21.9363 9.32402 21.923 9.12402C21.883 8.41736 21.723 7.88402 21.443 7.52402C21.1763 7.15069 20.743 6.96402 20.143 6.96402C19.5563 6.96402 19.123 7.15069 18.843 7.52402C18.563 7.88402 18.4096 8.41736 18.383 9.12402C18.3696 9.32402 18.363 9.59069 18.363 9.92402C18.363 10.2574 18.3696 10.524 18.383 10.724C18.4096 11.444 18.563 11.984 18.843 12.344C19.123 12.704 19.5563 12.884 20.143 12.884ZM31.31 15.324C30.67 15.324 30.09 15.224 29.57 15.024C29.0633 14.8107 28.6233 14.504 28.25 14.104C27.89 13.6907 27.61 13.1974 27.41 12.624C27.21 12.0374 27.0967 11.3707 27.07 10.624C27.0567 10.3574 27.05 10.124 27.05 9.92402C27.05 9.71069 27.0567 9.47736 27.07 9.22402C27.0967 8.50402 27.21 7.85736 27.41 7.28402C27.61 6.71069 27.89 6.21736 28.25 5.80402C28.61 5.39069 29.05 5.07736 29.57 4.86402C30.09 4.63736 30.67 4.52402 31.31 4.52402C31.9767 4.52402 32.55 4.63736 33.03 4.86402C33.51 5.07736 33.9167 5.35736 34.25 5.70402V1.42402C34.25 1.27736 34.2967 1.15736 34.39 1.06402C34.4833 0.97069 34.6033 0.924023 34.75 0.924023H37.19C37.3233 0.924023 37.4367 0.97069 37.53 1.06402C37.6367 1.15736 37.69 1.27736 37.69 1.42402V14.624C37.69 14.7707 37.6367 14.8907 37.53 14.984C37.4367 15.0774 37.3233 15.124 37.19 15.124H34.93C34.7833 15.124 34.6633 15.0774 34.57 14.984C34.4767 14.8907 34.43 14.7707 34.43 14.624V13.984C34.11 14.3707 33.6967 14.6907 33.19 14.944C32.6833 15.1974 32.0567 15.324 31.31 15.324ZM32.39 12.644C32.8433 12.644 33.1967 12.5507 33.45 12.364C33.7167 12.164 33.91 11.9107 34.03 11.604C34.1633 11.2974 34.2367 10.964 34.25 10.604C34.2633 10.3374 34.27 10.084 34.27 9.84402C34.27 9.60402 34.2633 9.35736 34.25 9.10402C34.2367 8.77069 34.1633 8.46402 34.03 8.18402C33.8967 7.89069 33.6967 7.65736 33.43 7.48402C33.1633 7.29736 32.8167 7.20402 32.39 7.20402C31.95 7.20402 31.5967 7.29736 31.33 7.48402C31.0767 7.67069 30.8967 7.92402 30.79 8.24402C30.6833 8.56402 30.6167 8.91736 30.59 9.30402C30.55 9.71736 30.55 10.1307 30.59 10.544C30.6167 10.9307 30.6833 11.284 30.79 11.604C30.8967 11.924 31.0767 12.1774 31.33 12.364C31.5967 12.5507 31.95 12.644 32.39 12.644ZM44.8472 15.324C43.2739 15.324 42.0205 14.8974 41.0872 14.044C40.1539 13.1907 39.6672 11.924 39.6272 10.244C39.6272 10.1507 39.6272 10.0307 39.6272 9.88402C39.6272 9.73736 39.6272 9.62402 39.6272 9.54402C39.6672 8.49069 39.9005 7.59069 40.3272 6.84402C40.7672 6.08402 41.3672 5.51069 42.1272 5.12402C42.9005 4.72402 43.8005 4.52402 44.8272 4.52402C46.0005 4.52402 46.9672 4.75736 47.7272 5.22402C48.5005 5.69069 49.0805 6.32402 49.4672 7.12402C49.8539 7.92402 50.0472 8.83736 50.0472 9.86402V10.344C50.0472 10.4907 49.9939 10.6107 49.8872 10.704C49.7939 10.7974 49.6805 10.844 49.5472 10.844H43.1472C43.1472 10.8574 43.1472 10.8774 43.1472 10.904C43.1472 10.9307 43.1472 10.9574 43.1472 10.984C43.1605 11.3707 43.2272 11.724 43.3472 12.044C43.4672 12.364 43.6539 12.6174 43.9072 12.804C44.1605 12.9907 44.4672 13.084 44.8272 13.084C45.0939 13.084 45.3139 13.044 45.4872 12.964C45.6739 12.8707 45.8272 12.7707 45.9472 12.664C46.0672 12.544 46.1605 12.444 46.2272 12.364C46.3472 12.2307 46.4405 12.1507 46.5072 12.124C46.5872 12.084 46.7072 12.064 46.8672 12.064H49.3472C49.4805 12.064 49.5872 12.104 49.6672 12.184C49.7605 12.2507 49.8005 12.3507 49.7872 12.484C49.7739 12.7107 49.6605 12.984 49.4472 13.304C49.2339 13.624 48.9205 13.944 48.5072 14.264C48.1072 14.5707 47.6005 14.824 46.9872 15.024C46.3739 15.224 45.6605 15.324 44.8472 15.324ZM43.1472 8.86402H46.5272V8.82402C46.5272 8.39736 46.4605 8.02402 46.3272 7.70402C46.2072 7.38402 46.0139 7.13736 45.7472 6.96402C45.4939 6.79069 45.1872 6.70402 44.8272 6.70402C44.4672 6.70402 44.1605 6.79069 43.9072 6.96402C43.6672 7.13736 43.4805 7.38402 43.3472 7.70402C43.2139 8.02402 43.1472 8.39736 43.1472 8.82402V8.86402ZM55.2316 15.124C55.0316 15.124 54.8849 15.0774 54.7916 14.984C54.6982 14.8774 54.6182 14.7574 54.5516 14.624L50.7716 5.34402C50.7449 5.29069 50.7316 5.23069 50.7316 5.16402C50.7316 5.04402 50.7716 4.94402 50.8516 4.86402C50.9449 4.77069 51.0582 4.72402 51.1916 4.72402H53.4516C53.6249 4.72402 53.7582 4.77069 53.8516 4.86402C53.9449 4.95736 54.0049 5.05069 54.0316 5.14402L56.2916 11.284L58.5716 5.14402C58.5982 5.05069 58.6582 4.95736 58.7516 4.86402C58.8449 4.77069 58.9782 4.72402 59.1516 4.72402H61.4116C61.5316 4.72402 61.6382 4.77069 61.7316 4.86402C61.8249 4.94402 61.8716 5.04402 61.8716 5.16402C61.8716 5.23069 61.8582 5.29069 61.8316 5.34402L58.0516 14.624C57.9982 14.7574 57.9182 14.8774 57.8116 14.984C57.7182 15.0774 57.5649 15.124 57.3516 15.124H55.2316ZM67.9555 15.324C66.8355 15.324 65.8888 15.144 65.1155 14.784C64.3555 14.424 63.7688 13.9107 63.3555 13.244C62.9555 12.564 62.7288 11.7574 62.6755 10.824C62.6621 10.5574 62.6555 10.2574 62.6555 9.92402C62.6555 9.57736 62.6621 9.27736 62.6755 9.02402C62.7288 8.07736 62.9688 7.27069 63.3955 6.60402C63.8221 5.93736 64.4155 5.42402 65.1755 5.06402C65.9488 4.70402 66.8755 4.52402 67.9555 4.52402C69.0488 4.52402 69.9755 4.70402 70.7355 5.06402C71.5088 5.42402 72.1088 5.93736 72.5355 6.60402C72.9621 7.27069 73.2021 8.07736 73.2555 9.02402C73.2688 9.27736 73.2755 9.57736 73.2755 9.92402C73.2755 10.2574 73.2688 10.5574 73.2555 10.824C73.2021 11.7574 72.9688 12.564 72.5555 13.244C72.1555 13.9107 71.5688 14.424 70.7955 14.784C70.0355 15.144 69.0888 15.324 67.9555 15.324ZM67.9555 12.884C68.5555 12.884 68.9888 12.704 69.2555 12.344C69.5355 11.984 69.6955 11.444 69.7355 10.724C69.7488 10.524 69.7555 10.2574 69.7555 9.92402C69.7555 9.59069 69.7488 9.32402 69.7355 9.12402C69.6955 8.41736 69.5355 7.88402 69.2555 7.52402C68.9888 7.15069 68.5555 6.96402 67.9555 6.96402C67.3688 6.96402 66.9355 7.15069 66.6555 7.52402C66.3755 7.88402 66.2221 8.41736 66.1955 9.12402C66.1821 9.32402 66.1755 9.59069 66.1755 9.92402C66.1755 10.2574 66.1821 10.524 66.1955 10.724C66.2221 11.444 66.3755 11.984 66.6555 12.344C66.9355 12.704 67.3688 12.884 67.9555 12.884Z" fill="#FF5E3A"/>
</svg>
